<svg width="216" height="46" viewBox="0 0 216 46" fill="none" xmlns="http://www.w3.org/2000/svg">
<path d="M0 3C0 1.34315 1.34315 0 3 0H72V46H3C1.34315 46 0 44.6569 0 43V3Z" fill="#3B5998"/>
<path d="M71.5 0.5H213C214.381 0.5 215.5 1.61929 215.5 3V43C215.5 44.3807 214.381 45.5 213 45.5H71.5V0.5Z" fill="white" stroke="#3B5998"/>
<path d="M111.654 29V24.8281H115.881V23.0234H111.654V20.1797H116.287V18.3359H109.389V29H111.654ZM122.012 27.9531H122.106V29H124.176V23.3906C124.176 21.3438 122.747 20.5625 120.77 20.5625C118.27 20.5625 117.403 21.8672 117.348 23.2656H119.419C119.473 22.6406 119.887 22.2188 120.723 22.2188C121.528 22.2188 122.005 22.5703 122.005 23.3281V24.1328H120.005C118.083 24.1328 117.044 25.1094 117.044 26.6094C117.044 28.1719 118.161 29.125 119.778 29.125C121.005 29.125 121.7 28.5547 122.012 27.9531ZM120.505 27.5469C119.848 27.5469 119.223 27.1875 119.223 26.4531C119.223 25.8438 119.661 25.4219 120.528 25.4219H122.005V26.2422C122.005 27 121.333 27.5469 120.505 27.5469ZM125.659 25.1797C125.659 27.6406 127.073 29.1484 129.401 29.1484C131.433 29.1484 132.878 28.0469 132.917 26.2266H130.901C130.808 26.8438 130.425 27.3984 129.472 27.3984C128.456 27.3984 127.87 26.5078 127.87 25.1641V24.4688C127.87 23.2031 128.409 22.2578 129.472 22.2578C130.331 22.2578 130.816 22.9219 130.87 23.5391H132.886C132.87 21.8828 131.597 20.5391 129.409 20.5391C127.026 20.5391 125.659 22.1719 125.659 24.4453V25.1797ZM137.83 29.1484C140.306 29.1484 141.259 27.6016 141.361 26.4453H139.306C139.228 27.0078 138.728 27.4766 137.822 27.4766C136.744 27.4766 136.142 26.6406 136.142 25.5859V25.3047H141.431V24.5234C141.431 22.1172 140.072 20.5391 137.72 20.5391C135.478 20.5391 133.986 22.0156 133.986 24.5312V25.1797C133.986 27.6953 135.423 29.1484 137.83 29.1484ZM136.142 23.9609V23.9453C136.142 22.9141 136.759 22.1641 137.736 22.1641C138.72 22.1641 139.314 22.9062 139.314 23.9453V23.9609H136.142ZM147.609 29.1016C149.555 29.1016 150.742 27.7266 150.742 25.2344V24.4375C150.742 22.0156 149.602 20.5859 147.633 20.5859C146.305 20.5859 145.578 21.1953 145.258 21.9141H145.164V17.7734H142.961V29H145.133V27.7109H145.227C145.523 28.5078 146.367 29.1016 147.609 29.1016ZM146.836 27.3672C145.742 27.3672 145.164 26.4297 145.164 25.2109V24.5C145.164 23.1719 145.828 22.3203 146.836 22.3203C147.844 22.3203 148.477 23.0938 148.477 24.5547V25.1641C148.477 26.6172 147.812 27.3672 146.836 27.3672ZM155.78 20.5391C153.241 20.5391 151.92 22.2422 151.92 24.5547V25.1016C151.92 27.6016 153.241 29.1484 155.78 29.1484C158.303 29.1484 159.616 27.5859 159.616 25.0938V24.5469C159.616 22.1875 158.303 20.5391 155.78 20.5391ZM155.772 22.2188C157.045 22.2188 157.389 23.375 157.389 24.5781V25.1016C157.389 26.2812 157.061 27.4609 155.772 27.4609C154.483 27.4609 154.139 26.2734 154.139 25.1016V24.5781C154.139 23.3828 154.499 22.2188 155.772 22.2188ZM164.638 20.5391C162.099 20.5391 160.778 22.2422 160.778 24.5547V25.1016C160.778 27.6016 162.099 29.1484 164.638 29.1484C167.161 29.1484 168.474 27.5859 168.474 25.0938V24.5469C168.474 22.1875 167.161 20.5391 164.638 20.5391ZM164.63 22.2188C165.903 22.2188 166.247 23.375 166.247 24.5781V25.1016C166.247 26.2812 165.919 27.4609 164.63 27.4609C163.341 27.4609 162.997 26.2734 162.997 25.1016V24.5781C162.997 23.3828 163.356 22.2188 164.63 22.2188ZM172.222 26.1406L172.785 25.5156L175.089 29H177.652L174.464 24.2734L177.441 20.6875H174.972L172.324 24.1016H172.222V17.7734H170.027V29H172.222V26.1406Z" fill="#3B5998"/>
<path d="M33.3466 34.25V24.5H30V20H33.3466V16.8575C33.3466 13.4343 35.5137 11.75 38.5674 11.75C40.0302 11.75 41.2873 11.8589 41.6537 11.9076V15.485L39.5358 15.4859C37.8751 15.486 37.5 16.2751 37.5 17.4332V20H42L40.5 24.5H37.5V34.25H33.3466Z" fill="white"/>
</svg>
