<svg width="216" height="46" viewBox="0 0 216 46" fill="none" xmlns="http://www.w3.org/2000/svg">
<path d="M0 3C0 1.34315 1.34315 0 3 0H72V46H3C1.34315 46 0 44.6569 0 43V3Z" fill="#DC4E41"/>
<path d="M71.5 0.5H213C214.381 0.5 215.5 1.61929 215.5 3V43C215.5 44.3807 214.381 45.5 213 45.5H71.5V0.5Z" fill="white" stroke="#DC4E41"/>
<path d="M128.028 21.7812C127.958 19.9297 126.575 18.1328 123.762 18.1328C120.856 18.1328 119.145 20.0391 119.145 22.9688V24.2969C119.145 27.1016 120.544 29.2031 123.723 29.2031C126.919 29.2031 128.044 27.0469 128.044 25.3281V23.2188H123.809V24.875H125.895V25.4766C125.895 26.4922 125.075 27.3203 123.754 27.3203C122.083 27.3203 121.426 26.0469 121.426 24.2891V22.9844C121.426 20.9453 122.387 20.0156 123.731 20.0156C124.856 20.0156 125.692 20.6641 125.825 21.7812H128.028ZM133.3 20.5391C130.761 20.5391 129.44 22.2422 129.44 24.5547V25.1016C129.44 27.6016 130.761 29.1484 133.3 29.1484C135.823 29.1484 137.136 27.5859 137.136 25.0938V24.5469C137.136 22.1875 135.823 20.5391 133.3 20.5391ZM133.292 22.2188C134.565 22.2188 134.909 23.375 134.909 24.5781V25.1016C134.909 26.2812 134.581 27.4609 133.292 27.4609C132.003 27.4609 131.659 26.2734 131.659 25.1016V24.5781C131.659 23.3828 132.019 22.2188 133.292 22.2188ZM142.158 20.5391C139.619 20.5391 138.298 22.2422 138.298 24.5547V25.1016C138.298 27.6016 139.619 29.1484 142.158 29.1484C144.681 29.1484 145.994 27.5859 145.994 25.0938V24.5469C145.994 22.1875 144.681 20.5391 142.158 20.5391ZM142.15 22.2188C143.423 22.2188 143.767 23.375 143.767 24.5781V25.1016C143.767 26.2812 143.439 27.4609 142.15 27.4609C140.861 27.4609 140.517 26.2734 140.517 25.1016V24.5781C140.517 23.3828 140.876 22.2188 142.15 22.2188ZM150.961 30.4766C150.047 30.4766 149.523 30.0859 149.422 29.5391H147.305C147.344 30.8438 148.414 32.0781 150.898 32.0781C152.93 32.0781 154.875 31.2734 154.875 28.8906V20.6875H152.711V21.9141H152.617C152.312 21.1875 151.562 20.5859 150.266 20.5859C148.406 20.5859 147.133 21.9844 147.133 24.3828V25.1094C147.133 27.5234 148.43 28.8828 150.25 28.8828C151.43 28.8828 152.289 28.3125 152.594 27.5781H152.688V28.75C152.688 29.8516 152.125 30.4766 150.961 30.4766ZM151.07 22.3203C152.062 22.3203 152.68 23.1953 152.68 24.5V25.1719C152.68 26.3984 152.086 27.2578 151.078 27.2578C150.086 27.2578 149.383 26.5078 149.383 25.125V24.5C149.383 23.125 150.047 22.3203 151.07 22.3203ZM156.764 29H158.967V17.7734H156.764V29ZM164.403 29.1484C166.88 29.1484 167.833 27.6016 167.935 26.4453H165.88C165.802 27.0078 165.302 27.4766 164.395 27.4766C163.317 27.4766 162.716 26.6406 162.716 25.5859V25.3047H168.005V24.5234C168.005 22.1172 166.645 20.5391 164.294 20.5391C162.052 20.5391 160.56 22.0156 160.56 24.5312V25.1797C160.56 27.6953 161.997 29.1484 164.403 29.1484ZM162.716 23.9609V23.9453C162.716 22.9141 163.333 22.1641 164.31 22.1641C165.294 22.1641 165.888 22.9062 165.888 23.9453V23.9609H162.716Z" fill="#DC4E41"/>
<g clip-path="url(#clip0)">
<path d="M36.625 21.25V24.4875H41.875C41.7 25.8875 40.2125 28.6 36.5375 28.6C33.3 28.6 30.675 25.8875 30.675 22.65C30.675 19.4125 33.3 16.7 36.5375 16.7C38.375 16.7 39.6 17.4875 40.3 18.1875L42.8375 15.7375C41.175 14.1625 39.075 13.2875 36.45 13.2875C31.2 13.1125 27 17.4 27 22.65C27 27.9 31.2 32.1 36.45 32.1C43.0125 32.1 46.3375 26.675 45.375 21.25H36.625Z" fill="white"/>
</g>
<defs>
<clipPath id="clip0">
<rect width="28" height="28" fill="white" transform="translate(27 9)"/>
</clipPath>
</defs>
</svg>
